<svg height='100px' width='100px'  fill="#ffffff" xmlns="http://www.w3.org/2000/svg" data-name="Camada 1" viewBox="0 0 100 100" x="0px" y="0px"><title>Beet</title><path d="M98.97863,50.66873A40.82621,40.82621,0,0,0,71.13877,21.58566a38.25831,38.25831,0,0,0-30.67437,3.289L29.35554-.00008,23.87683,2.4463l11.544,25.84907c-.52932.42213-1.04594.87008-1.5603,1.32274L4.2775.03508.03516,4.27742l29.5829,29.5829c-.45271.51437-.90066,1.03105-1.32274,1.56036L2.44638,23.87675,0,29.35546,24.87455,40.4642a38.26115,38.26115,0,0,0-3.28882,30.67449A40.82626,40.82626,0,0,0,50.6688,98.97856a37.03669,37.03669,0,0,0,8.77619,1.02152,43.72354,43.72354,0,0,0,5.94553-.416L95.46,95.45988l4.12417-30.06944.001-.001A39.44794,39.44794,0,0,0,98.97863,50.66873Z"></path></svg>