<svg height='100px' width='100px'  fill="#ffffff" xmlns="http://www.w3.org/2000/svg" data-name="Camada 1" viewBox="0 0 100 100" x="0px" y="0px"><title>Broccoli</title><path d="M92.16963,87.93029c-7.93-7.93981-10.04042-18.24955-10.04042-26.9693A61.25842,61.25842,0,0,1,84.6796,43.72142,25.93888,25.93888,0,0,0,47.46823,7.5823a25.49627,25.49627,0,0,0-4.67059,6.38986A25.91518,25.91518,0,0,0,13.967,42.79145a25.48954,25.48954,0,0,0-6.38061,4.67988A25.93179,25.93179,0,0,0,43.71809,84.67042c4.00015-1.25,28.61094-8.09983,44.21163,7.49982L95.75961,100,100,95.76011ZM49.24808,77.15059A25.94393,25.94393,0,0,0,51.65833,62.731a24.84174,24.84174,0,0,0,4.1398-2.68993l17.401,17.39953A58.53533,58.53533,0,0,0,49.24808,77.15059ZM60.03853,55.79113a25.46885,25.46885,0,0,0,2.70029-4.1299,25.91112,25.91112,0,0,0,14.41022-2.41,58.70249,58.70249,0,0,0,.29,23.94942Z"></path></svg>