<svg  height='100px' width='100px'  fill="#ffffff" xmlns="http://www.w3.org/2000/svg" xmlns:xlink="http://www.w3.org/1999/xlink" version="1.1" x="0px" y="0px" viewBox="0 0 512 512" enable-background="new 0 0 512 512" xml:space="preserve"><g><path d="M461,172.2c-9.1-6-20.1-10-31.9-11.5c-2.6-0.3-5.6-0.4-8.9-0.2c-24.8,1.4-60.9,17.4-79.1,26.1c4.4,5.3,8.3,10.8,11.6,16.5   c27.7,22.1,51.2,35.3,66.1,37.2c31.6,4.1,59.6-10.5,62.5-32.4C482.9,195.1,475.4,181.7,461,172.2z"></path><path d="M341.7,210.8c0,0,0-0.1-0.1-0.1c-4.6-8.1-10.5-15.8-17.5-22.8c-19.7-19.7-44.4-30.1-71.5-30.1c-32.3,0-67.2,14-103.6,41.5   l-1.1,0.9c0,0,0,0,0,0l44.2,44.2c2.6,2.6,2.6,6.8,0,9.4c-1.3,1.3-3,2-4.7,2s-3.4-0.7-4.7-2L137.8,209c-0.2,0.1-0.4,0.1-0.6,0.2   c-0.3,0.1-0.7,0.2-1,0.3c-0.4,0.3-0.8,0.6-1,0.8c-8.5,7.2-17.1,15.1-25.7,23.7c-30.1,30.1-52.2,71.2-65.4,121.9l-0.5,2.1   c0,0,0,0.1,0,0.1l-1.1,4.2l21.8,21.8c2.6,2.6,2.6,6.8,0,9.4c-1.3,1.3-3,2-4.7,2c-1.7,0-3.4-0.7-4.7-2l-15.8-15.8   c-6.1,30.6-8.1,58.4-8.6,76.5c-0.1,2.5,0.1,4.9,0.4,7.1c2,12.9,11.1,20,25.6,20c0.4,0,0.8,0,1.3,0c37.3-1,131.4-9.3,200.1-62.8   c0.1-0.1,0.2-0.2,0.4-0.3l-0.1-0.1c-0.1-0.1-0.2-0.2-0.2-0.2l-78.3-78.3c-2.6-2.6-2.6-6.8,0-9.4c2.6-2.6,6.8-2.6,9.4,0l78.5,78.5   c0.1,0.1,0.2,0.2,0.2,0.2l0.5,0.5c4-3.5,7.8-7,8.8-7.9c37.2-37.2,61.3-73.5,71.5-107.9C357.7,263,355.4,235.1,341.7,210.8   C341.8,210.8,341.8,210.8,341.7,210.8z"></path><path d="M363.9,95.7c-14.3,23.2-24.7,59.6-29.7,79.5c19.9-9.7,56.4-25.7,83.6-27.9c4.5-2.9,8.3-5.8,11.1-8.7   c12.2-12.2,20.6-26.8,23.5-41c2.7-13.2,0.3-24.3-6.7-31.3c-2.2-2.2-4.9-4-8-5.3c-17.5-7.4-43.9,1.7-64.3,22.1   C370.2,86.3,367,90.5,363.9,95.7z"></path><path d="M271.6,93.2c1.9,14.9,15.2,38.4,37.2,66.1c4.6,2.6,9,5.6,13.3,9c5.4-20.8,15.6-54.8,29.4-78c0.1-2.7,0-5.1-0.3-7.3   c-2.6-20.3-12.8-38.4-26.6-47.1c-6.6-4.2-13.8-5.9-20.7-5c-10.2,1.3-19.3,8.3-25.4,19.5C272.1,62.3,269.6,77.5,271.6,93.2z"></path></g></svg>