<svg height='100px' width='100px'  fill="#ffffff" xmlns="http://www.w3.org/2000/svg" viewBox="0 0 100 100" x="0px" y="0px"><defs><style>.cls-1{fill:none;}</style></defs><title>Asset 346</title><g data-name="Layer 2"><g data-name="Layer 1"><path d="M57.92,27C51.43,13.32,39.07,5.6,30.31,9.75s-10.59,18.62-4.1,32.3C32.4,55.1,43.93,62.7,52.58,59.77c.07-2.14-.35-7.19-4.93-12.32-9.2-10.33-13-18.55-14-30.36a1.56,1.56,0,1,1,3.11-.27c1,11.05,4.57,18.79,13.28,28.54a21.53,21.53,0,0,1,5.67,12.82C62.79,53,63.92,39.66,57.92,27Z"></path><path d="M36.92,82.92C23.83,82.17,17.65,79.8,8.19,71.86a1.56,1.56,0,1,1,2-2.39c9.06,7.58,14.33,9.61,26.91,10.33a30.06,30.06,0,0,1,15.68,5.92c1.7-8.82-7-19.27-20.39-24C18.13,56.58,3.92,59.86.67,69S6.34,89.65,20.61,94.73c13.49,4.81,26.91,2.13,31.08-5.9C49.52,87.12,44,83.32,36.92,82.92Z"></path><path d="M90.28,47.68c-9.13-3.26-20.65,5.67-25.74,19.93-4.82,13.54-2.11,27,6,31.12A22.58,22.58,0,0,0,75.83,85.4c.75-13.15,3.67-20.77,11.58-30.21a1.57,1.57,0,0,1,2.4,2C82.3,66.15,79.66,73.05,79,85.58a25.57,25.57,0,0,1-5.27,14.23c8.79,1.59,19.17-7.07,23.93-20.41C102.69,65.13,99.41,50.93,90.28,47.68Z"></path><rect class="cls-1" width="100" height="100"></rect></g></g></svg>