<svg height='100px' width='100px'  fill="#ffffff" xmlns="http://www.w3.org/2000/svg" xmlns:xlink="http://www.w3.org/1999/xlink" version="1.1" x="0px" y="0px" viewBox="0 0 512 512" enable-background="new 0 0 512 512" xml:space="preserve"><path d="M113.582,245.163c36.705,26.849,141.222,112.312,149.732,220.438v29.191c0,5.709-4.628,10.338-10.338,10.338h-7.906  c-5.71,0-10.338-4.629-10.338-10.338v-13.544c0-7.515-6.131-13.361-13.642-13.124c-38.36,1.209-143.045-13.686-121.925-216.589  C99.89,244.568,107.927,241.027,113.582,245.163z"></path><path d="M267.998,11.168c-5.6-5.732-14.883-5.732-20.483,0C183.55,76.65,179.383,217.374,179.88,264.551  c0.098,9.29,3.951,18.152,10.769,24.463c24.059,22.271,46.833,57.17,58.664,76.71c3.842,6.345,13.046,6.345,16.889,0  c11.831-19.54,34.605-54.438,58.663-76.71c6.818-6.311,10.671-15.173,10.769-24.463C336.131,217.374,331.963,76.65,267.998,11.168z   M248.311,264.738h-27.215c-4.443,0-8.057-3.615-8.057-8.057c0-4.442,3.614-8.057,8.057-8.057h27.215  c4.442,0,8.056,3.614,8.056,8.057C256.367,261.123,252.753,264.738,248.311,264.738z M256.756,106.6h-27.215  c-4.442,0-8.056-3.614-8.056-8.057c0-4.442,3.614-8.056,8.056-8.056h27.215c4.442,0,8.057,3.614,8.057,8.056  C264.813,102.985,261.198,106.6,256.756,106.6z M303.354,191.107h-27.216c-4.441,0-8.056-3.614-8.056-8.057s3.614-8.057,8.056-8.057  h27.216c4.442,0,8.057,3.614,8.057,8.057S307.797,191.107,303.354,191.107z"></path><path d="M398.439,245.148c-47.383,31.768-99.574,97.327-124.123,142.297c-1.172,2.146-2.413,4.429-3.701,6.802  c-3.026,5.577-3.609,12.138-1.768,18.21c3.871,12.766,7.338,27.678,9.295,44.147c0.831,6.997,6.955,12.124,13.984,11.658  c1.365-0.091,2.788-0.139,4.271-0.139l-0.033-0.097c41.886-1.479,136.506-22.504,116.519-216.025  C412.166,245.045,404.248,241.253,398.439,245.148z"></path></svg>