<svg height='100px' width='100px'  fill="#ffffff" xmlns="http://www.w3.org/2000/svg" data-name="Camada 1" viewBox="0 0 100 100" x="0px" y="0px"><title>Garlic</title><path d="M99.98,57.535a29.42838,29.42838,0,0,0-9.75-20.78L54.55008,4.855a6.81915,6.81915,0,0,0-9.1001,0L9.76,36.755A29.41743,29.41743,0,0,0,.02,57.535,27.73948,27.73948,0,0,0,7.82,78.045a28.08847,28.08847,0,0,0,18.80993,8.5c.46009.03.91016.03,1.37012.04a28.09894,28.09894,0,0,0,20.37988,10.26c.53.03,1.07007.04,1.62012.04.54,0,1.08-.01,1.61987-.04A28.096,28.096,0,0,0,71.99,86.585c.46-.01.91992-.01,1.37-.04A28.04688,28.04688,0,0,0,92.17,78.045,27.74752,27.74752,0,0,0,99.98,57.535Zm-74.68994-4.66a29.22464,29.22464,0,0,0-1.3,27.32,21.84886,21.84886,0,0,1-6.62134-2.33649A29.17732,29.17732,0,0,1,19.62454,52.875l12.438-28.00647L41.46,16.465Zm49.41992,0L58.53006,16.465l9.40527,8.41046L80.37784,52.875a29.20736,29.20736,0,0,1,2.24463,24.98724A21.84509,21.84509,0,0,1,76,80.195,29.25289,29.25289,0,0,0,74.71,52.875Z"></path></svg>