<svg height='100px' width='100px'  fill="#ffffff" xmlns="http://www.w3.org/2000/svg" data-name="Camada 1" viewBox="0 0 100 100" x="0px" y="0px"><title>Lettuce_1</title><path d="M87.67,82.52C89,79.6,89.19,76.2,89.33,73.1A24.77,24.77,0,0,1,90.07,67,23.54,23.54,0,0,1,93.2,61.6c2.35-3.42,5-7.3,4.57-11.86-.41-4.2-3.4-7.28-6.3-10.25a23.72,23.72,0,0,1-4.33-5.32,21.3,21.3,0,0,1-1.35-6.23c-.5-4-1.07-8.52-4.23-11.68S73.88,12.53,69.88,12a21.3,21.3,0,0,1-6.23-1.35,23.72,23.72,0,0,1-5.32-4.33c-3-2.9-6-5.89-10.25-6.3C43.51-.4,39.64,2.27,36.22,4.62A23.54,23.54,0,0,1,30.8,7.75a24.71,24.71,0,0,1-6.08.74c-4.26.19-9.1.4-12.45,3.76S8.69,20.44,8.5,24.71a24.72,24.72,0,0,1-.73,6.07A23.91,23.91,0,0,1,4.64,36.2c-2.36,3.42-5,7.3-4.58,11.86.42,4.21,3.41,7.28,6.31,10.26a23,23,0,0,1,4.32,5.32,21.2,21.2,0,0,1,1.36,6.23c.5,4,1.06,8.52,4.22,11.68S24,85.27,28,85.77a21.2,21.2,0,0,1,6.22,1.36,23.49,23.49,0,0,1,5.32,4.32c3,2.9,6,5.89,10.26,6.31.34,0,.68,0,1,0,4.13,0,7.69-2.45,10.85-4.63A23.91,23.91,0,0,1,67,90.05a24.66,24.66,0,0,1,6.07-.73c3.52-.16,7.43-.34,10.57-2.28l11.85,13L100,96Zm-8.21-.09L66.15,67.9H45.51v-6H60.66L50.67,51l4.42-4.05L72.33,65.77V52h6V72.32l5.37,5.87Z"></path></svg>