<svg height='100px' width='100px'  fill="#ffffff" xmlns="http://www.w3.org/2000/svg" data-name="Camada 1" viewBox="0 0 100 100" x="0px" y="0px"><title>Pumpkin</title><path d="M100,53.6c0-1.04749-.04077-2.08265-.11389-3.10474-.02521-.37811-.05921-.75238-.0929-1.12689l-.00476-.05384C98.24988,32.41318,88.21912,19.315,76.11,19.315a17.74108,17.74108,0,0,0-9.57,2.89,24.78569,24.78569,0,0,0-11.11-7.04L53,3.535H47L44.57,15.165a24.78569,24.78569,0,0,0-11.11,7.04,17.74108,17.74108,0,0,0-9.57-2.89C11.78088,19.315,1.75012,32.41318.21155,49.31454l-.00476.05384c-.03369.37451-.06769.74878-.0929,1.12689C.04077,51.51736,0,52.55252,0,53.6c0,.04058.00189.08062.002.12115C.002,53.75931,0,53.79678,0,53.835c0,19.04,10.72,34.53,23.89,34.53a17.27875,17.27875,0,0,0,7.72-1.85c4.94,6.2,11.37,9.95,18.39,9.95s13.45-3.75,18.39-9.95a17.27875,17.27875,0,0,0,7.72,1.85c13.17,0,23.89-15.49,23.89-34.53,0-.03821-.00195-.07568-.002-.11383C99.99811,53.68063,100,53.64059,100,53.6ZM28.22,81.475a11.18353,11.18353,0,0,1-4.33.88995,10.80875,10.80875,0,0,1-1.1845-.07312A61.966,61.966,0,0,1,15.79,55.2,59.80623,59.80623,0,0,1,24.3186,25.345a11.66987,11.66987,0,0,1,5.40137,1.6c-4.91,7.39-7.93,17.43-7.93,28.49A53.193,53.193,0,0,0,28.22,81.475Zm43.56006,0a53.193,53.193,0,0,0,6.43-26.04c0-11.06-3.02-21.1-7.93-28.49a11.66987,11.66987,0,0,1,5.40137-1.6A59.80623,59.80623,0,0,1,84.21,55.2a61.966,61.966,0,0,1-6.91553,27.09186A10.80875,10.80875,0,0,1,76.11,82.365,11.18353,11.18353,0,0,1,71.78,81.475Z"></path></svg>