<svg height='100px' width='100px'  fill="#ffffff" xmlns="http://www.w3.org/2000/svg" data-name="Camada 1" viewBox="0 0 100 100" x="0px" y="0px"><title>Grain</title><path d="M42.77,56.09l1.59009-1.92L42.77,52.25a26.78081,26.78081,0,0,0-41.17017,0L0,54.17l1.59985,1.92a26.7807,26.7807,0,0,0,41.17017,0Z"></path><path d="M49.13013,69.54A26.71008,26.71008,0,0,0,28.54,79.2L26.95,81.12,28.54,83.03a26.76279,26.76279,0,0,0,41.16992,0l1.6001-1.91L69.71,79.2A26.67455,26.67455,0,0,0,49.13013,69.54Z"></path><path d="M52.25,42.76l1.91992,1.6,1.92017-1.6a26.763,26.763,0,0,0,0-41.17L54.16992,0,52.25,1.59a26.78027,26.78027,0,0,0,0,41.17Z"></path><path d="M79.2,69.71l1.91992,1.59L83.04,69.71a26.78071,26.78071,0,0,0,0-41.17l-1.92017-1.59L79.2,28.54a26.78071,26.78071,0,0,0,0,41.17Z"></path><rect x="63.95589" y="23.22336" width="5.99936" height="87.46441" transform="translate(-27.7339 66.95557) rotate(-45)"></rect><path d="M27.90991,33.21c.82007,0,1.65015-.04,2.47022-.12l2.48974-.23.23-2.48005A26.77453,26.77453,0,0,0,3.99,1.27L1.5,1.5,1.27,3.98A26.78721,26.78721,0,0,0,27.90991,33.21Z"></path></svg>