<svg height='100px' width='100px'  fill="#ffffff" xmlns="http://www.w3.org/2000/svg" xmlns:xlink="http://www.w3.org/1999/xlink" version="1.1" x="0px" y="0px" viewBox="0 0 512 512" enable-background="new 0 0 512 512" xml:space="preserve"><path d="M237.51,154.079c3.595,1.141,7.369-1.153,8.012-4.869c4.135-23.915,12.344-103.611-55.903-128.162  c-4.898-1.762-9.968-3.06-15.099-3.936c-0.065-0.011-0.132-0.023-0.199-0.035c-10.16-1.774-19.752,5.385-20.674,15.657  C150.604,66.628,157.085,128.557,237.51,154.079z"></path><path d="M265.471,159.13c1.524,0.218,3.234-0.338,3.904-1.725c23.164-47.997,68.525-53.967,78.463-57.622  c2.451-0.901,4.858-1.882,7.129-3.171c16.159-9.174,16.141-24.466,13.805-34.742c-1.386-6.091-7.658-9.794-13.656-8.052  c-83.935,24.366-92.539,85.344-93.137,101.095C261.898,157.012,263.393,158.832,265.471,159.13z"></path><path d="M398.837,165.095c0,0-51.604-34.664-112.046,2.303l-5.443,3.003c-15.777,8.708-34.918,8.707-50.696,0l-5.442-3.003  c-60.442-36.967-112.046-2.303-112.046-2.303C20,226.074,75.315,360.535,75.315,360.535  c41.836,95.458,100.131,124.27,127.568,132.795c8.772,2.726,18.183,2.455,26.783-0.773l12.928-4.853  c8.643-3.244,18.168-3.244,26.812,0l12.928,4.853c8.6,3.229,18.01,3.499,26.782,0.773c27.437-8.525,85.732-37.337,127.568-132.795  C436.685,360.535,492,226.074,398.837,165.095z M145.895,229.667c-12.902,15.358-23.339,27.827-33.218,19.527  s-11.809-31.157,1.094-46.515c12.902-15.357,35.75-17.399,45.629-9.1S158.797,214.31,145.895,229.667z"></path></svg>