<svg height='100px' width='100px'  fill="#ffffff" xmlns:x="http://ns.adobe.com/Extensibility/1.0/" xmlns:i="http://ns.adobe.com/AdobeIllustrator/10.0/" xmlns:graph="http://ns.adobe.com/Graphs/1.0/" xmlns="http://www.w3.org/2000/svg" xmlns:xlink="http://www.w3.org/1999/xlink" version="1.1" x="0px" y="0px" viewBox="0 0 100 100" style="enable-background:new 0 0 100 100;" xml:space="preserve"><g><g i:extraneous="self"><g><path d="M24.8,71.1c10.9-0.9,21.6-4.6,31.2-10.7C71.8,50.2,82.8,35.9,86.2,21c-8.4,14-24.2,24.7-42.5,29.7     C31.8,53.9,19.9,54,9.1,51.5C6.9,51,4.5,52,3.3,54c-1.4,2.2-1,5.2,0.9,6.9c5.1,4.8,11.3,8.4,18.2,10.7     C23.2,71.3,24,71.1,24.8,71.1z"></path><path d="M95.2,23.2l1.7-9.6c0.2-1-0.5-2-1.5-2.2l-4-0.9c-1.3-0.3-2.5,0.8-2.3,2.1c0.3,2.3,0.6,5.7,0.5,8.7     C85.9,37.4,74,52.6,57.8,63.1c-10.4,6.7-21.7,10.4-32.7,11.3c-2.3,0.2-4.2,1.9-4.8,4.2c-0.6,2.5,0.6,5.2,3,6.3     c15.2,7.2,34.5,6.3,50.7-4.1C94.3,67.6,101.7,43.5,95.2,23.2z"></path></g></g></g></svg>