<svg height='100px' width='100px'  fill="#ffffff" xmlns="http://www.w3.org/2000/svg" xmlns:xlink="http://www.w3.org/1999/xlink" version="1.1" x="0px" y="0px" viewBox="0 0 512 512" enable-background="new 0 0 512 512" xml:space="preserve"><path d="M406.1,379.9c-3.2-30.6-24.3-56.4-53.6-65.8c-7.6-2.4-15.6-3.7-23.7-3.7c-5.4,0-10.8,0.6-16,1.7h0  c-10.6,2.2-20.5,6.6-29.3,12.9c-20.3,14.6-32.4,38.2-32.4,63.2c0,6.2,0.7,12.3,2.1,18.2c8.4,35,39.5,59.5,75.6,59.5  c8.1,0,16.1-1.2,23.7-3.7c32.3-10.3,54-40.1,54-74.1C406.5,385.5,406.4,382.7,406.1,379.9z M371.9,425.7c-11.8,0-21.3-9.6-21.3-21.3  c0-11.8,9.6-21.3,21.3-21.3s21.3,9.6,21.3,21.3C393.3,416.1,383.7,425.7,371.9,425.7z"></path><path d="M464.7,263.3c-1.2-2.4-2.5-4.8-4-7.2c-8.8-14-22.1-25.1-37.5-31.1c-1.6-0.6-3.1-1.2-4.6-1.7c-7.6-2.4-15.6-3.7-23.7-3.7  c-5.9,0-11.8,0.7-17.5,2c-6.9,1.6-13.6,4.1-19.8,7.5c-25,13.7-40.5,39.8-40.5,68.2c0,0.5,0,0.9,0,1.4v0.1c0,0.1,0,0.2,0,0.3  c3.9-0.5,7.8-0.8,11.7-0.8c9.3,0,18.5,1.4,27.3,4.3c31.7,10.1,55,36.9,60.9,69.2c0.5-0.1,1-0.3,1.4-0.4c0.8-0.2,1.5-0.5,2.1-0.7  c0,0,0,0,0.1,0c0.1,0,0.2-0.1,0.3-0.1c0.5-0.2,1-0.4,1.5-0.6l1.4-0.5c0.6-0.2,1.1-0.5,1.7-0.7c0.2-0.1,0.4-0.2,0.6-0.3l0.5-0.2  c0.5-0.2,1.1-0.5,1.6-0.7c0.1,0,0.1,0,0.1-0.1c0.3-0.2,0.7-0.3,1-0.5c0.5-0.3,1-0.5,1.5-0.8c0.2-0.1,0.4-0.2,0.6-0.3l0.5-0.3  c0.5-0.3,1-0.5,1.5-0.8c0.4-0.2,0.8-0.4,1.1-0.7c0.5-0.3,0.9-0.5,1.3-0.8c0.1,0,0.1-0.1,0.2-0.1c0.3-0.2,0.7-0.4,1.1-0.7  c0.5-0.3,0.9-0.6,1.3-0.9l0.4-0.3c0.2-0.2,0.5-0.3,0.7-0.5c0.5-0.3,0.8-0.6,1.2-0.9c0.5-0.3,0.9-0.6,1.3-0.9  c0.4-0.3,0.8-0.6,1.1-0.9c0.4-0.3,0.8-0.6,1.2-1c0.3-0.2,0.5-0.4,0.7-0.6l0.4-0.4c0.3-0.3,0.7-0.6,1.1-0.9l1.1-1  c0.4-0.3,0.8-0.7,1.1-1.1l1-0.9c0.4-0.4,0.8-0.8,1.2-1.2c0.3-0.3,0.6-0.6,0.9-0.9c0.4-0.4,0.8-0.9,1.2-1.3c0.3-0.3,0.6-0.6,0.8-0.9  c0.4-0.4,0.7-0.9,1.1-1.3c0,0,0.1-0.1,0.1-0.1c0.2-0.3,0.5-0.6,0.7-0.9c0.3-0.4,0.6-0.8,1-1.2l0.8-1.1c0.4-0.5,0.7-1,1.1-1.5  c0,0,0.1-0.1,0.1-0.1c0.1-0.2,0.3-0.4,0.4-0.5l0.3-0.4c0.3-0.4,0.6-0.9,0.9-1.5c0-0.1,0.1-0.1,0.1-0.1c0.1-0.2,0.3-0.4,0.4-0.6  l0.1-0.2c0.3-0.6,0.7-1.1,1-1.6l0.6-1c0.3-0.5,0.6-1.1,0.9-1.7l0.2-0.5c0.1-0.2,0.2-0.3,0.3-0.5c0.3-0.6,0.6-1.2,0.9-1.8  c0-0.1,0-0.1,0.1-0.1l0.1-0.3c0.1-0.2,0.2-0.4,0.3-0.6l0.1-0.1c0.3-0.6,0.5-1.2,0.8-1.8l0.4-0.9c0.3-0.7,0.6-1.3,0.8-2l0.1-0.3  c0.1-0.2,0.1-0.3,0.2-0.5c0.2-0.5,0.4-1,0.6-1.6l0.2-0.5c0.1-0.3,0.2-0.5,0.3-0.7l0-0.1c0.2-0.7,0.5-1.4,0.7-2.1c0,0,0-0.1,0-0.1  l0.2-0.7c0.2-0.8,0.4-1.5,0.6-2.3l0.2-0.7c0.2-0.8,0.4-1.6,0.6-2.4l0.1-0.6c0.2-0.9,0.4-1.8,0.5-2.7l0.1-0.3c0.2-1.1,0.3-2.1,0.4-3  c0-0.1,0-0.2,0-0.3c0.4-3.1,0.6-6.2,0.6-9.4C472.6,285.4,469.9,274,464.7,263.3z M440.3,310c-11.8,0-21.3-9.6-21.3-21.3  s9.6-21.3,21.3-21.3s21.3,9.6,21.3,21.3S452.1,310,440.3,310z"></path><path d="M496.7,71.8c-0.3,0-0.6,0.1-0.8,0.1c-0.4,0.1-0.7,0.1-1.1,0.2c-0.3,0.1-0.6,0.1-0.9,0.2c-0.4,0.1-0.7,0.1-1.1,0.2  c-0.3,0.1-0.6,0.1-0.9,0.2c-0.4,0.1-0.7,0.2-1.1,0.3c-0.3,0.1-0.6,0.2-0.9,0.2c-0.4,0.1-0.7,0.2-1.1,0.3c-0.3,0.1-0.6,0.2-0.9,0.3  c-0.4,0.1-0.8,0.2-1.1,0.3c-0.3,0.1-0.6,0.2-0.9,0.3c-0.4,0.1-0.8,0.3-1.1,0.4c-0.3,0.1-0.6,0.2-0.9,0.3c-0.4,0.1-0.8,0.3-1.2,0.4  c-0.3,0.1-0.6,0.2-0.9,0.3c-0.4,0.2-0.8,0.3-1.2,0.5c-0.3,0.1-0.6,0.2-0.9,0.4c-0.4,0.2-0.8,0.3-1.2,0.5c-0.3,0.1-0.6,0.3-0.9,0.4  c-0.4,0.2-0.8,0.4-1.2,0.5c-0.3,0.1-0.6,0.3-0.9,0.4c-0.4,0.2-0.8,0.4-1.2,0.6c-0.3,0.1-0.6,0.3-0.9,0.5c-0.4,0.2-0.8,0.4-1.2,0.6  c-0.3,0.2-0.6,0.3-0.9,0.5c-0.4,0.2-0.8,0.4-1.3,0.7c-0.3,0.2-0.6,0.3-0.9,0.5c-0.4,0.2-0.8,0.5-1.3,0.7c-0.3,0.2-0.6,0.3-0.9,0.5  c-0.4,0.2-0.9,0.5-1.3,0.7c-0.3,0.2-0.6,0.3-0.9,0.5c-0.4,0.3-0.9,0.5-1.3,0.8c-0.3,0.2-0.6,0.4-0.9,0.5c-0.4,0.3-0.9,0.5-1.3,0.8  c-0.3,0.2-0.6,0.4-0.9,0.6c-0.4,0.3-0.9,0.6-1.3,0.9c-0.3,0.2-0.6,0.4-0.8,0.6c-0.5,0.3-0.9,0.6-1.4,0.9c-0.3,0.2-0.5,0.4-0.8,0.6  c-0.5,0.3-0.9,0.6-1.4,1c-0.3,0.2-0.5,0.4-0.8,0.6c-0.5,0.3-0.9,0.7-1.4,1c-0.3,0.2-0.5,0.4-0.8,0.6c-0.5,0.4-1,0.7-1.5,1.1  c-0.2,0.2-0.5,0.4-0.7,0.5c-0.5,0.4-1,0.8-1.5,1.1c-0.2,0.2-0.5,0.3-0.7,0.5c-0.5,0.4-1,0.8-1.6,1.2c-0.2,0.2-0.4,0.3-0.6,0.5  c-0.6,0.4-1.1,0.9-1.7,1.3c-0.2,0.1-0.3,0.3-0.5,0.4c-0.6,0.5-1.2,1-1.8,1.5c-0.1,0.1-0.3,0.2-0.4,0.3c-0.7,0.6-1.3,1.1-2,1.7  c-0.1,0.1-0.1,0.1-0.2,0.2c-3.7,3.1-7.3,6.4-10.9,9.8c-0.1,0.1-0.1,0.1-0.2,0.2c-0.6,0.6-1.3,1.2-1.9,1.8c-0.1,0.1-0.3,0.3-0.4,0.4  c-0.6,0.6-1.1,1.1-1.7,1.7c-0.2,0.2-0.3,0.3-0.5,0.5c-0.5,0.5-1,1-1.6,1.6c-0.2,0.2-0.4,0.4-0.6,0.6c-0.5,0.5-1,1-1.5,1.5  c-0.2,0.2-0.4,0.5-0.7,0.7c-0.5,0.5-0.9,1-1.4,1.5c-0.2,0.2-0.5,0.5-0.7,0.7c-0.5,0.5-0.9,1-1.4,1.4c-0.2,0.3-0.5,0.5-0.7,0.8  c-0.4,0.5-0.9,1-1.3,1.4c-0.2,0.3-0.5,0.5-0.7,0.8c-0.4,0.5-0.8,0.9-1.3,1.4c-0.2,0.3-0.5,0.6-0.7,0.8c-0.4,0.5-0.8,0.9-1.2,1.4  c-0.2,0.3-0.5,0.6-0.7,0.9c-0.4,0.5-0.8,0.9-1.2,1.4c-0.2,0.3-0.5,0.6-0.7,0.9c-0.4,0.5-0.8,0.9-1.2,1.4c-0.3,0.3-0.5,0.6-0.8,0.9  c-0.4,0.5-0.8,0.9-1.1,1.4c-0.3,0.3-0.5,0.6-0.8,0.9c-0.4,0.5-0.7,0.9-1.1,1.4c-0.3,0.3-0.5,0.6-0.8,0.9c-0.4,0.5-0.7,0.9-1.1,1.4  c-0.2,0.3-0.5,0.6-0.7,0.9c-0.4,0.5-0.7,0.9-1.1,1.4c-0.2,0.3-0.5,0.6-0.7,1c-0.3,0.5-0.7,0.9-1,1.4c-0.2,0.3-0.5,0.6-0.7,1  c-0.3,0.4-0.7,0.9-1,1.3c-0.2,0.3-0.5,0.7-0.7,1c-0.3,0.4-0.7,0.9-1,1.3c-0.2,0.3-0.5,0.7-0.7,1c-0.3,0.4-0.6,0.9-0.9,1.3  c-0.2,0.3-0.5,0.7-0.7,1c-0.3,0.4-0.6,0.9-0.9,1.3c-0.2,0.3-0.5,0.7-0.7,1c-0.3,0.4-0.6,0.9-0.9,1.3c-0.2,0.3-0.4,0.7-0.7,1  c-0.3,0.4-0.6,0.9-0.9,1.3c-0.2,0.3-0.4,0.7-0.6,1c-0.3,0.5-0.6,0.9-0.9,1.3c-0.2,0.3-0.4,0.7-0.6,1c-0.3,0.4-0.6,0.9-0.8,1.3  c-0.2,0.3-0.4,0.7-0.6,1c-0.3,0.5-0.6,0.9-0.8,1.4c-0.2,0.3-0.4,0.6-0.6,1c-0.3,0.5-0.5,0.9-0.8,1.4c-0.2,0.3-0.4,0.6-0.6,0.9  c-0.3,0.5-0.5,0.9-0.8,1.4c-0.2,0.3-0.4,0.6-0.5,0.9c-0.3,0.5-0.5,1-0.8,1.4c-0.2,0.3-0.3,0.6-0.5,0.9c-0.3,0.5-0.6,1.1-0.9,1.6  c-0.1,0.2-0.3,0.5-0.4,0.7c-0.4,0.8-0.8,1.5-1.2,2.3c-0.6,1.1-1.1,2.2-1.7,3.4c-0.4,0.9-0.8,1.7-1.2,2.5c0,0,0,0.1-0.1,0.1  c-0.1,0.1-0.1,0.2-0.2,0.4l-0.1,0.2c-0.5,1.1-1,2.3-1.5,3.4c0,0.1-0.1,0.2-0.1,0.3c3.8,5.2,6.9,10.9,9.5,16.8c5-0.8,10-1.3,15.1-1.3  c9.4,0,18.6,1.4,27.4,4.3c0.1,0,0.2,0.1,0.3,0.1c20.1-37.4,40.7-78.5,55.8-110.7c1.4-3,5-4.3,8-2.9c3,1.4,4.3,5,2.9,8  c-15,32.1-35.5,72.8-55.4,110.1c15,7.3,28,18.8,36.9,32.9c3-4.7,5.9-9.5,8.4-14.5c13.6-26.6,23.7-64.4,26.3-98.5  C507.4,109,504.4,86.2,496.7,71.8C496.8,71.8,496.8,71.8,496.7,71.8z"></path><path d="M220.3,233.9c0.5,0.4,1,0.9,1.4,1.4c0,0,0,0,0,0c0,0,0,0,0,0c0,0,0,0,0,0l0.1,0.1c0.1,0.1,0.2,0.2,0.3,0.3  c0.4,0.4,0.8,0.8,1.2,1.2c0.2,0.2,0.4,0.4,0.6,0.6c0.3,0.3,0.6,0.6,1,1c1.4,1.4,2.8,2.9,4.2,4.4c0.2,0.2,0.5,0.6,0.8,0.9  c1.2,1.3,2.4,2.7,3.5,4.1c0.3,0.3,0.5,0.6,0.8,1c0.5,0.7,1.1,1.3,1.6,2c0.4,0.4,0.7,0.9,1,1.4c0.5,0.6,1,1.3,1.4,1.9  c0.4,0.5,0.7,1,1,1.4c0.1,0.1,0.2,0.2,0.2,0.3c0,0,0,0,0,0c0,0,0,0,0,0c0.3,0.4,0.5,0.7,0.8,1.1c0.1,0.2,0.2,0.3,0.3,0.5  c0,0,0,0,0,0c0,0,0,0,0,0c0.4,0.5,0.7,1.1,1.1,1.6c0,0,0,0,0,0c0.5,0.7,0.9,1.4,1.4,2.1c0,0,0.1,0.1,0.1,0.1  c0.2,0.2,0.3,0.5,0.5,0.8c2.9,1.7,5.7,3.5,8.4,5.5c14.5,10.9,25.4,25.9,31.2,42.9c6.8-4,14.1-7.1,21.7-9.1c0-0.8-0.1-1.6-0.1-2.4  c0-0.6,0-1.2,0-1.8c0-32.8,17.9-63,46.7-78.8c5.1-2.8,10.5-5.1,16.1-6.8c-2.5-5.4-5.6-10.4-9.2-15.1c-9.7-12.4-22.7-21.5-37.6-26.3  c-7.6-2.4-15.6-3.7-23.7-3.7c-16.1,0-31.5,4.9-44.7,14.1C234.9,193.3,223.2,212.6,220.3,233.9z"></path><path d="M112,316.2c4.3-15.9,12.9-30.2,24.9-41.6c-38.1-16.8-78.5-35.7-107.3-50.4c-3-1.5-4.1-5.1-2.6-8.1c1.5-3,5.1-4.1,8.1-2.6  c30.1,15.3,72.8,35.3,112.3,52.6c4.9-3.4,10.1-6.3,15.6-8.7c11.2-4.9,23.3-7.4,35.7-7.4c5.8,0,11.6,0.6,17.2,1.7  c2.2,0.4,4.3,0.9,6.4,1.5c-0.4-0.4-0.7-0.9-1.1-1.3c0,0-0.1-0.1-0.1-0.1c-0.2-0.2-0.4-0.4-0.6-0.6c-1.3-1.5-2.6-2.8-3.9-4.2  c0,0-0.1-0.1-0.1-0.1c-0.2-0.3-0.5-0.5-0.8-0.8c-0.1-0.1-0.2-0.2-0.3-0.3c-0.1-0.1-0.1-0.1-0.1-0.1c0,0-0.1,0-0.1-0.1c0,0,0,0,0,0  c-0.5-0.5-1-1-1.5-1.5l-0.1-0.1c0,0,0,0,0,0c-0.5-0.5-1-1-1.6-1.5c-0.1-0.1-0.2-0.2-0.3-0.2c-0.4-0.4-0.8-0.8-1.2-1.1  c-0.1-0.1-0.2-0.2-0.4-0.3c-0.7-0.7-1.4-1.3-2.2-1.9c0,0,0,0,0,0c-0.3-0.3-0.6-0.6-0.9-0.8c-0.2-0.2-0.5-0.4-0.7-0.6  c-0.1-0.1-0.1-0.1-0.2-0.2c-0.6-0.5-1.1-0.9-1.7-1.4c0,0-0.1,0-0.1-0.1c-0.3-0.2-0.5-0.4-0.8-0.6c0,0-0.1,0-0.1-0.1  c-0.9-0.7-1.8-1.4-2.7-2.2c-0.6-0.4-1.2-0.9-1.7-1.3c0,0-0.1,0-0.1-0.1l-0.6-0.4c-0.1,0-0.1-0.1-0.2-0.1l-0.5-0.3  c-0.3-0.2-0.5-0.4-0.8-0.6c-0.4-0.3-0.8-0.6-1.2-0.8c-0.6-0.4-1.2-0.8-1.8-1.2c-1.3-0.9-2.5-1.7-3.7-2.4l-0.2-0.1  c-0.2-0.1-0.5-0.3-0.7-0.4c0,0-0.1,0-0.1-0.1c-0.5-0.3-0.9-0.6-1.4-0.9c-0.6-0.4-1.2-0.7-1.8-1.1c0,0-0.1,0-0.1-0.1  c-1.5-0.9-3.1-1.8-5.1-2.9c-1-0.6-2-1.1-3.1-1.6c-0.9-0.5-1.8-0.9-2.8-1.4c-0.3-0.2-0.7-0.3-1-0.5c-0.9-0.4-1.7-0.8-2.6-1.2  c-1.7-0.8-3.5-1.6-5.6-2.4c-0.7-0.3-1.3-0.5-1.9-0.8c-1.2-0.5-2.4-0.9-3.6-1.4l-1.5-0.6c-1.4-0.5-2.9-1.1-4.7-1.7  c-1-0.3-1.9-0.7-2.9-1l0,0c-2.1-0.7-4.3-1.4-6.4-2c-0.8-0.3-1.6-0.5-2.4-0.7l-0.9-0.3c-2.7-0.8-5.3-1.5-7.7-2.1l-2.4-0.6  c-1.7-0.4-3.4-0.8-5.2-1.2c-1-0.2-2-0.5-3.1-0.7l-3.8-0.8c0,0-0.1,0-0.1,0c-1.2-0.2-2.4-0.5-3.5-0.7v0l-0.2,0c-0.1,0-0.1,0-0.2,0  c-1-0.2-2.1-0.4-3.1-0.6c-1.1-0.2-2.2-0.4-3.2-0.6l-0.4-0.1c-1.2-0.2-2.4-0.4-3.6-0.6l-2.6-0.4c-2.7-0.4-5.1-0.7-7.5-1  c-1.3-0.2-2.7-0.3-4-0.4c-0.1,0-0.1,0-0.2,0l-0.5-0.1c-0.6-0.1-1.3-0.1-1.9-0.2c-0.4,0-0.7-0.1-1.1-0.1l-1.2-0.1  c-0.7-0.1-1.3-0.1-2-0.2l-2.3-0.2c-0.9-0.1-1.7-0.1-2.6-0.2c-1-0.1-1.8-0.1-2.7-0.2c-0.9,0-1.9-0.1-2.8-0.1c-1,0-2.1-0.1-3.2-0.1  c-0.8,0-1.6,0-2.4,0c-13.5-0.2-25.6,0.7-36.2,2.8c-1,0.2-2,0.4-3.2,0.7l-1.1,0.3c-1,0.2-1.9,0.5-2.8,0.7c-2,0.5-3.8,1.1-5.6,1.7  c-0.6,0.2-1.1,0.4-1.7,0.6c-0.1,0-0.1,0-0.2,0.1c-0.8,0.3-1.6,0.6-2.3,0.9c-0.9,0.4-1.7,0.7-2.5,1.1c-0.2,0.1-0.4,0.2-0.6,0.3  c-0.8,0.4-1.5,0.7-2.3,1.1c0,0-0.1,0-0.1,0.1c-0.6,0.3-1.2,0.7-1.7,1c3,16,14.8,35.7,33.5,56C60.9,282.2,87.6,303,112,316.2z"></path><path d="M104.6,112c1.9,24.6,7.8,51.7,16.3,75.2c0.2,0,0.4,0.1,0.6,0.1c0.1,0,0.1,0,0.2,0l0.8,0.2c0.4,0.1,0.8,0.2,1.1,0.2l1,0.2  l1,0.2c1.1,0.2,2.2,0.5,3.3,0.7c1.8,0.4,3.6,0.9,5.4,1.3l2.4,0.6c2.5,0.6,5.2,1.4,8.1,2.2l1,0.3c0.8,0.2,1.7,0.5,2.5,0.7  c2.2,0.6,4.4,1.4,6.6,2.1l0.6,0.2c0.7,0.2,1.4,0.5,2,0.7c0.2,0.1,0.3,0.1,0.5,0.2c1.2,0.4,2.3,0.8,3.3,1.2c0.6,0.2,1.1,0.4,1.6,0.6  l1.5,0.6c1.3,0.5,2.6,1,3.8,1.5c0.7,0.3,1.4,0.6,2.1,0.9c2.2,0.9,4.2,1.8,5.9,2.6c0.9,0.4,1.9,0.9,2.8,1.3c0.3,0.2,0.7,0.3,1.1,0.5  c1,0.5,2,1,3,1.5c0.7,0.4,1.4,0.7,2.1,1.1c-21.3-39.1-44.6-84.8-62-121.6c-1.4-3-0.1-6.6,2.9-8c3-1.4,6.6-0.1,8,2.9  c20.2,42.9,48.5,97.7,72.3,140.1c0.5,0.4,1,0.7,1.5,1.1c0,0,0.1,0.1,0.1,0.1c0.6,0.5,1.2,1,1.9,1.5c4.5-20.2,15.9-38.2,32.3-51.1  c-2.1-5.6-4.5-11.1-7.2-16.4c-0.4-0.8-0.8-1.5-1.2-2.3c-0.1-0.3-0.3-0.5-0.4-0.8c-0.3-0.5-0.5-1-0.8-1.5c-0.2-0.3-0.3-0.6-0.5-0.9  c-0.3-0.5-0.5-0.9-0.8-1.4c-0.2-0.3-0.4-0.7-0.6-1c-0.2-0.4-0.5-0.9-0.7-1.3c-0.2-0.4-0.4-0.7-0.6-1.1c-0.2-0.4-0.5-0.8-0.7-1.3  c-0.2-0.4-0.4-0.7-0.6-1.1c-0.3-0.4-0.5-0.8-0.8-1.3c-0.2-0.4-0.4-0.7-0.7-1.1c-0.3-0.4-0.5-0.8-0.8-1.3c-0.2-0.4-0.5-0.7-0.7-1.1  c-0.3-0.4-0.5-0.8-0.8-1.3c-0.2-0.4-0.5-0.7-0.7-1.1c-0.3-0.4-0.6-0.8-0.8-1.3c-0.2-0.4-0.5-0.7-0.7-1.1c-0.3-0.4-0.6-0.8-0.9-1.3  c-0.2-0.4-0.5-0.7-0.7-1.1c-0.3-0.4-0.6-0.8-0.9-1.3c-0.2-0.4-0.5-0.7-0.8-1.1c-0.3-0.4-0.6-0.8-0.9-1.3c-0.3-0.4-0.5-0.7-0.8-1.1  c-0.3-0.4-0.6-0.8-0.9-1.3c-0.3-0.4-0.5-0.7-0.8-1.1c-0.3-0.4-0.6-0.8-0.9-1.3c-0.3-0.3-0.5-0.7-0.8-1c-0.3-0.4-0.6-0.8-1-1.3  c-0.3-0.3-0.5-0.7-0.8-1c-0.3-0.4-0.7-0.9-1-1.3c-0.3-0.3-0.5-0.7-0.8-1c-0.3-0.4-0.7-0.9-1-1.3c-0.3-0.3-0.5-0.7-0.8-1  c-0.3-0.4-0.7-0.9-1-1.3c-0.3-0.3-0.5-0.7-0.8-1c-0.4-0.4-0.7-0.9-1.1-1.3c-0.3-0.3-0.5-0.6-0.8-1c-0.4-0.4-0.7-0.9-1.1-1.3  c-0.3-0.3-0.5-0.6-0.8-0.9c-0.4-0.4-0.8-0.9-1.1-1.3c-0.3-0.3-0.5-0.6-0.8-0.9c-0.4-0.4-0.8-0.9-1.2-1.3c-0.3-0.3-0.5-0.6-0.8-0.9  c-0.4-0.5-0.8-0.9-1.2-1.4c-0.3-0.3-0.5-0.6-0.8-0.8c-0.4-0.5-0.8-0.9-1.3-1.4c-0.2-0.3-0.5-0.5-0.7-0.8c-0.4-0.5-0.9-0.9-1.3-1.4  c-0.2-0.2-0.5-0.5-0.7-0.7c-0.5-0.5-0.9-1-1.4-1.4c-0.2-0.2-0.5-0.5-0.7-0.7c-0.5-0.5-1-1-1.4-1.5c-0.2-0.2-0.4-0.4-0.6-0.6  c-0.5-0.5-1-1-1.6-1.6c-0.2-0.2-0.3-0.3-0.5-0.5c-0.6-0.6-1.1-1.1-1.7-1.7c-0.1-0.1-0.2-0.2-0.4-0.4c-0.6-0.6-1.3-1.2-1.9-1.9  c-0.1-0.1-0.1-0.1-0.2-0.2c-4.3-4.1-8.7-8-13.1-11.6c-0.1-0.1-0.2-0.1-0.2-0.2c-0.6-0.5-1.3-1.1-1.9-1.6c-0.1-0.1-0.3-0.2-0.4-0.3  c-0.6-0.5-1.2-1-1.8-1.4c-0.2-0.1-0.3-0.3-0.5-0.4c-0.6-0.4-1.1-0.9-1.7-1.3c-0.2-0.1-0.4-0.3-0.6-0.4c-0.5-0.4-1.1-0.8-1.6-1.2  c-0.2-0.2-0.4-0.3-0.6-0.5c-0.5-0.4-1-0.8-1.6-1.2c-0.2-0.2-0.4-0.3-0.7-0.5c-0.5-0.4-1-0.7-1.5-1.1c-0.2-0.2-0.5-0.3-0.7-0.5  c-0.5-0.3-1-0.7-1.5-1c-0.2-0.2-0.5-0.3-0.7-0.5c-0.5-0.3-1-0.7-1.5-1c-0.2-0.2-0.5-0.3-0.7-0.5c-0.5-0.3-1-0.6-1.4-0.9  c-0.3-0.2-0.5-0.3-0.8-0.5c-0.5-0.3-0.9-0.6-1.4-0.9c-0.3-0.2-0.5-0.3-0.8-0.5c-0.5-0.3-0.9-0.6-1.4-0.8c-0.3-0.2-0.5-0.3-0.8-0.5  c-0.5-0.3-0.9-0.5-1.4-0.8c-0.3-0.2-0.5-0.3-0.8-0.5c-0.5-0.3-0.9-0.5-1.4-0.8c-0.3-0.1-0.5-0.3-0.8-0.4c-0.4-0.2-0.9-0.5-1.3-0.7  c-0.3-0.1-0.5-0.3-0.8-0.4c-0.4-0.2-0.9-0.4-1.3-0.7c-0.3-0.1-0.5-0.3-0.8-0.4c-0.4-0.2-0.9-0.4-1.3-0.6c-0.3-0.1-0.5-0.3-0.8-0.4  c-0.4-0.2-0.9-0.4-1.3-0.6c-0.3-0.1-0.6-0.2-0.8-0.4c-0.4-0.2-0.8-0.4-1.3-0.5c-0.3-0.1-0.6-0.2-0.8-0.3c-0.4-0.2-0.8-0.3-1.2-0.5  c-0.3-0.1-0.6-0.2-0.8-0.3c-0.4-0.2-0.8-0.3-1.2-0.5c-0.3-0.1-0.6-0.2-0.8-0.3c-0.4-0.1-0.8-0.3-1.2-0.4c-0.3-0.1-0.6-0.2-0.8-0.3  c-0.4-0.1-0.8-0.2-1.2-0.4c-0.3-0.1-0.5-0.2-0.8-0.2c-0.4-0.1-0.8-0.2-1.2-0.3c-0.3-0.1-0.5-0.1-0.8-0.2c-0.4-0.1-0.8-0.2-1.2-0.3  c-0.3-0.1-0.5-0.1-0.8-0.2c-0.4-0.1-0.8-0.2-1.2-0.2c-0.3-0.1-0.5-0.1-0.8-0.2c-0.4-0.1-0.8-0.1-1.1-0.2c-0.3,0-0.5-0.1-0.8-0.1  c0,0-0.1,0-0.1,0C105.5,61.7,102.5,84.5,104.6,112z"></path><path d="M273.2,317.8c-4.7-16-14.6-30.2-28.1-40.4c-2.7-2-5.5-3.8-8.4-5.4c-0.1,0-0.1-0.1-0.2-0.1c-4.5-2.5-9.3-4.6-14.2-6.2  c-1.1-0.3-2.1-0.6-3.2-0.9c-1.8-0.5-3.7-0.9-5.6-1.3c-4.9-0.9-9.9-1.4-14.9-1.4c-10.8,0-21.2,2.1-30.9,6.4c-5.7,2.4-11.1,5.6-16,9.3  c-15.7,11.9-26.2,29.1-29.6,48.4c-0.8,4.5-1.2,9-1.2,13.6c0,42.9,34.9,77.7,77.7,77.7c8.1,0,16.1-1.2,23.7-3.7  c6.5-2.1,12.7-5,18.4-8.7c-1.1-5.6-1.6-11.2-1.6-16.9C239.1,360.8,251.8,334.8,273.2,317.8z M158.3,360.7  c-11.8,0-21.3-9.6-21.3-21.3c0-1.8,0.2-3.6,0.7-5.4c2.4-9.4,10.9-16,20.6-16c11.8,0,21.3,9.6,21.3,21.3  C179.6,351.1,170.1,360.7,158.3,360.7z"></path></svg>