<svg height='100px' width='100px'  fill="#ffffff" xmlns="http://www.w3.org/2000/svg" xmlns:xlink="http://www.w3.org/1999/xlink" version="1.1" x="0px" y="0px" viewBox="0 0 512 512" enable-background="new 0 0 512 512" xml:space="preserve"><path d="M128.625,239.4c2.332-39.396,22.308-172.41,185.013-195.153c8.303-1.16,16.159-4.574,22.437-10.13  c2.456-2.174,5.025-4.638,7.376-7.258c3.639-4.056,9.797-4.563,13.897-0.975l0.234,0.205c3.725,3.26,4.473,8.8,1.67,12.881  c-14.839,21.612-54.24,92.67-16.591,195.122c2.591,7.052-2.635,14.534-10.146,14.534l0,0c-4.426,0-8.416-2.677-10.044-6.792  c-7.566-19.119-25.788-77.264-6.782-157.313c1.304-5.492-0.387-11.275-4.443-15.201l0,0c-3.994-3.865-9.684-5.374-15.077-4.028  c-31.987,7.98-139.413,44.434-146.816,175.283c-0.312,5.498-4.845,9.814-10.352,9.814l0,0  C133.017,250.391,128.271,245.374,128.625,239.4z"></path><path d="M363.096,65.705c-4.916,27.716-11.227,114.238,103.6,107.066c4.808-0.301,8.117-5.011,6.748-9.629  c-7.099-23.935-32.34-88.95-100.193-104.231C368.566,57.856,363.934,60.978,363.096,65.705z"></path><circle cx="341.646" cy="376.877" r="111.645"></circle><path d="M210.377,376.877c0-23.803,6.346-46.117,17.425-65.363c3.234-5.619,2.062-12.774-2.729-17.144  c-21.48-19.592-50.627-30.917-82.426-28.908C87.334,268.955,42.375,313.59,38.524,368.88  c-4.546,65.276,47.061,119.641,111.365,119.641c28.964,0,55.338-11.04,75.176-29.131c4.794-4.371,5.973-11.528,2.736-17.15  C216.723,422.992,210.377,400.679,210.377,376.877z M93.397,336.571c-7.293,9.862-15.169,16.713-21.324,12.162  c-6.154-4.551-6.143-17.28,1.15-27.143c7.292-9.862,19.104-13.122,25.259-8.571S100.689,326.709,93.397,336.571z M133.982,318.907  c-5.039,6.814-10.481,11.548-14.733,8.403c-4.253-3.145-4.244-11.939,0.794-18.754c5.039-6.814,13.201-9.068,17.453-5.923  C141.749,305.778,139.021,312.093,133.982,318.907z"></path></svg>