<svg height='100px' width='100px'  fill="#ffffff" xmlns="http://www.w3.org/2000/svg" xmlns:xlink="http://www.w3.org/1999/xlink" version="1.1" x="0px" y="0px" viewBox="0 0 512 512" enable-background="new 0 0 512 512" xml:space="preserve"><path d="M206.07,54.443c11.751,5.122,28.905,15.916,41.015,37.843c0.688,1.247,1.985,2.049,3.409,2.049  c2.315,0,4.124-1.985,3.881-4.287c-1.35-12.81-7.525-50.84-33.956-65.832c-4.811-2.729-10.739-3.029-15.662-0.507  c-0.12,0.062-0.241,0.124-0.361,0.188C191.881,30.567,193.07,48.777,206.07,54.443z"></path><path d="M273.056,96.485c5.79,1.862,11.443,3.796,11.443,3.796c72.831,24.716,98.876-21.957,106.305-41.276  c1.243-3.233-1.089-6.803-4.554-6.803c-4.508,0-8.138-1.018-8.138-1.018c-59.829-22.73-96.095,18.145-108.294,35.567  C267.351,90.275,268.961,95.168,273.056,96.485z"></path><path d="M279.873,133.324c-2.371-13.03-12.152-22.8-23.873-22.8c-11.72,0-21.502,9.771-23.873,22.8  c-66.884,13.573-117.826,83.127-117.826,166.947c0,76.658,42.61,141.391,101.056,162.277c4.083,1.459,7.504,4.323,9.644,8.096  c6.611,11.66,18.016,19.373,31,19.373c12.984,0,24.389-7.713,31-19.373c2.139-3.772,5.561-6.637,9.643-8.096  c58.446-20.887,101.057-85.619,101.057-162.277C397.699,216.452,346.758,146.897,279.873,133.324z M210.011,218.067  c-11.892,12.265-19.374,24.188-28.134,15.694c-8.76-8.494-6.222-25.323,5.669-37.587s28.633-15.322,37.394-6.828  S221.903,205.803,210.011,218.067z"></path></svg>