<svg height='100px' width='100px'  fill="#ffffff" xmlns="http://www.w3.org/2000/svg" xmlns:xlink="http://www.w3.org/1999/xlink" version="1.1" x="0px" y="0px" viewBox="0 0 512 512" enable-background="new 0 0 512 512" xml:space="preserve"><path d="M340.416,122.975c52.37-17.964,62.549-65.903,63.928-93.159c0.304-5.994-6.324-10.049-11.365-6.794  c-10.641,6.871-23.565,6.245-23.565,6.245c-97.031-10.888-124.704,47.086-132.292,74.238c-1.231,4.407,2.303,8.647,6.87,8.37  c3.973-0.242,7.976-0.367,12.009-0.367c23.305,0,45.652,4.055,66.422,11.444C328.234,125.019,334.58,124.977,340.416,122.975z"></path><ellipse cx="256" cy="470.837" rx="11.677" ry="7.149"></ellipse><path d="M256,129.709c-99.528,0-180.212,80.684-180.212,180.212S156.472,490.133,256,490.133s180.212-80.684,180.212-180.212  S355.528,129.709,256,129.709z M171.241,225.605c-10.996,12.408-23.05,19.223-30.646,12.491s-4.841-22.249,6.156-34.656  c10.996-12.409,26.069-17.01,33.665-10.277C188.013,199.895,182.238,213.197,171.241,225.605z"></path></svg>