<svg height='100px' width='100px'  fill="#ffffff" xmlns="http://www.w3.org/2000/svg" xmlns:xlink="http://www.w3.org/1999/xlink" version="1.1" x="0px" y="0px" viewBox="0 0 100 100" enable-background="new 0 0 100 100" xml:space="preserve"><path fill-rule="evenodd" clip-rule="evenodd" d="M73.153,56.973c-6.658-10.201-9.11-27.537-18.243-29.831  c0.714-2.111,1.68-4.258,2.687-6.473c1.983-4.363,4.034-8.875,4.631-14.077c0.096-0.839-0.507-1.597-1.345-1.693  c-0.837-0.102-1.597,0.505-1.693,1.345c-0.188,1.638-0.553,3.222-1.018,4.767c-1.417-1.025-3.331-1.916-5.583-1.711  c-0.308,0.029-0.584,0.148-0.809,0.328c-4.76-4.32-10.54-6.86-18.17-2.895c-7.077,4.29-10.84,11.141-12.404,19.145  c6.903,1.385,13.947,1.979,21.571-0.719c4.287-2.42,8.293-4.99,9.474-12.89c0.196,0.066,0.407,0.095,0.623,0.076  c1.721-0.164,3.237,0.83,4.235,1.728c-0.705,1.815-1.503,3.587-2.296,5.332c-1.164,2.561-2.28,5.04-3.056,7.542  c-0.044,0.005-0.085,0.003-0.129,0.008C36.164,28.829,38.979,44.065,28.005,57.07c-12.723,15.078,0.911,37.895,21.516,38.169  C67.132,95.474,89.398,81.862,73.153,56.973z M38.63,78.055c-0.208,1.071-1.238,1.773-2.301,1.568  c-1.063-0.207-1.757-1.242-1.549-2.314c0.208-1.072,1.238-1.773,2.301-1.567C38.145,75.946,38.838,76.982,38.63,78.055z   M40.094,67.443c-0.487,2.517-2.906,4.164-5.403,3.682c-2.496-0.484-4.125-2.916-3.636-5.433c0.486-2.517,2.905-4.165,5.402-3.682  C38.953,62.494,40.582,64.926,40.094,67.443z"></path></svg>