<svg height='100px' width='100px'  fill="#ffffff" xmlns="http://www.w3.org/2000/svg" xmlns:xlink="http://www.w3.org/1999/xlink" version="1.1" x="0px" y="0px" viewBox="0 0 512 512" enable-background="new 0 0 512 512" xml:space="preserve"><path d="M132.093,82c-2.451-1.729-1.563-5.549,1.396-6.037c16.809-2.772,53.927-6.148,68.968,14.464  c10.802,14.803,21.747,22.491,29.101,26.352c2.754,1.446,2.193,5.553-0.844,6.226c-16.193,3.589-48.69,7.531-67.363-12.476  C148.784,94.924,138.365,86.426,132.093,82z"></path><path d="M382.336,82c2.451-1.729,1.563-5.549-1.396-6.037c-16.809-2.772-53.926-6.148-68.967,14.464  c-10.802,14.803-21.747,22.491-29.101,26.352c-2.755,1.446-2.194,5.553,0.843,6.226c16.193,3.589,48.69,7.531,67.364-12.476  C365.644,94.924,376.063,86.426,382.336,82z"></path><path d="M250.03,103.08c-2.319-24.286-0.692-65.32,45.447-88.435c2.281-1.143,5.057-0.058,5.885,2.356l5.94,17.297  c0.673,1.958-0.183,4.095-2.015,5.058c-9.524,5.003-37.656,22.86-49.854,64.269C254.579,106.523,250.318,106.089,250.03,103.08z"></path><path d="M420.195,263.001c0-17.994-9.479-33.736-23.684-42.626c0.35-2.515,0.652-5.063,0.594-7.674  c-0.861-37.958-29.722-49.782-46.901-53.459c-5.294-1.133-9.928,3.598-8.796,8.893c1.857,8.688,1.467,17.882,0.759,24.31  c-0.242,2.2-3.217,2.616-4.112,0.591c-7.31-16.538-21.665-29.394-21.665-29.394c-15.523-14.96-36.62-24.177-59.881-24.177  c-23.431,0-44.668,9.349-60.222,24.502c-7.776-4.175-16.661-6.553-26.105-6.553c-30.534,0-55.287,24.752-55.287,55.287  c0,2.611,0.244,5.159,0.595,7.674c-14.206,8.89-23.685,24.632-23.685,42.626c0,14.292,5.988,27.161,15.559,36.319  c-4.598,7.592-7.294,16.464-7.294,25.988c0,18.669,10.195,34.925,25.297,43.604c-0.293,2.196-0.497,4.419-0.497,6.695  c0,26.276,20.156,47.817,45.846,50.075c2.938,21.239,19.086,38.247,39.918,42.385c7.864,17.521,25.428,29.743,45.876,29.743  c20.554,0,38.199-12.343,46.003-30.008c20.275-4.526,35.891-21.274,38.773-42.12c25.689-2.258,45.846-23.799,45.846-50.075  c0-2.276-0.204-4.499-0.496-6.695c15.102-8.68,25.296-24.936,25.296-43.604c0-9.524-2.695-18.396-7.294-25.988  C414.207,290.162,420.195,277.293,420.195,263.001z M146.248,259.459c-5.253,8.638-11.176,14.064-16.33,10.93  c-5.155-3.135-6.213-13.57-0.96-22.208c5.253-8.637,14.828-12.207,19.982-9.072S151.501,250.822,146.248,259.459z M159.314,213.323  c-4.618-3.882-4.077-14.356,2.427-22.095c6.506-7.739,16.511-9.812,21.13-5.929c4.618,3.882,0.75,11.966-5.755,19.705  C170.611,212.742,163.933,217.205,159.314,213.323z M202.839,248.527c-6.505,7.739-13.183,12.202-17.802,8.32  c-4.618-3.882-4.077-14.356,2.428-22.095s16.51-9.812,21.129-5.93C213.212,232.705,209.344,240.789,202.839,248.527z"></path></svg>