<svg height='100px' width='100px'  fill="#ffffff" xmlns="http://www.w3.org/2000/svg" xmlns:xlink="http://www.w3.org/1999/xlink" version="1.1" x="0px" y="0px" viewBox="0 0 100 100" enable-background="new 0 0 100 100" xml:space="preserve"><g><path d="M17.6,46.9l21.3-9.1l-9.5-4.6c4.8-5.7,12-9.3,20-9.3c12.9,0,23.7,9.5,25.8,21.8l8.4-3.6C79.9,26.5,66,14.9,49.3,14.9   c-11.6,0-21.9,5.6-28.3,14.3l-9.5-4.6L17.6,46.9z"></path><path d="M82.4,50.7l-21.3,9.1l9.8,4.7c-4.7,6.9-12.7,11.5-21.7,11.5c-13.7,0-24.9-10.5-26-23.9l-8.6,3.7   C17.5,72.5,32,85.1,49.3,85.1c12.6,0,23.6-6.6,29.8-16.6l9.3,4.5L82.4,50.7z"></path></g></svg>