<svg height='100px' width='100px'  fill="#ffffff" xmlns="http://www.w3.org/2000/svg" xmlns:xlink="http://www.w3.org/1999/xlink" version="1.1" x="0px" y="0px" viewBox="0 0 52 52" enable-background="new 0 0 52 52" xml:space="preserve"><g><path d="M32.6,8.5C31.8,5,29.7,2,26.1,2c-3.6,0-5.8,2.9-5.8,6.5c0,3.6,5.4,7.7,5.8,15.2C31.7,20.5,33.8,13.1,32.6,8.5L32.6,8.5z    M32.6,8.5"></path><path d="M19.4,43.5c0.9,3.5,2.9,6.5,6.5,6.5c3.6,0,5.8-2.9,5.8-6.5c0-3.6-5.4-7.7-5.8-15.2C20.3,31.5,18.2,38.9,19.4,43.5   L19.4,43.5z M19.4,43.5"></path><path d="M8,22.1c3.1,1.8,9.4-0.9,16,2.6c0.1-6.4-5.3-11.9-9.9-13.2c-3.4-1-7.1-0.7-8.9,2.4C3.5,17,4.9,20.3,8,22.1L8,22.1z M8,22.1   "></path><path d="M37.8,40.5c3.5,1,7.1,0.7,8.9-2.4c1.8-3.1,0.4-6.4-2.7-8.2c-3.1-1.8-9.4,0.9-16.1-2.6C27.9,33.7,33.2,39.2,37.8,40.5   L37.8,40.5z M37.8,40.5"></path><path d="M13.6,39.6c3.1-1.8,4-8.6,10.3-12.6C18.4,23.8,11,25.7,7.5,29c-2.6,2.5-4.2,5.8-2.4,8.9C6.9,41,10.5,41.4,13.6,39.6   L13.6,39.6z M13.6,39.6"></path><path d="M28.1,25c5.5,3.3,12.9,1.4,16.4-2c2.6-2.5,4.2-5.8,2.4-8.9c-1.8-3.1-5.4-3.6-8.5-1.8C35.3,14.1,34.4,20.9,28.1,25L28.1,25z   "></path></g></svg>