<svg height='100px' width='100px'  fill="#ffffff" xmlns="http://www.w3.org/2000/svg" xmlns:xlink="http://www.w3.org/1999/xlink" version="1.1" x="0px" y="0px" viewBox="0 0 100 100" enable-background="new 0 0 100 100" xml:space="preserve"><path d="M46.372,78.876c0,0,8.304-27.753-11.914-40.424c-17.922-11.233-24.03-11.813-27.93-22.591c0,0-9.592,25.191,19.284,42.419  c0,0,12.053,6.172,14.829,7.131c0,0-0.682-3.231-8.166-13.618C32.477,51.792,47.798,60.917,46.372,78.876z M41.134,35.789  c3.9-0.505,6.651-4.089,6.146-7.989c-0.518-3.912-4.102-6.651-8.002-6.146c-3.9,0.517-6.651,4.089-6.146,8.002  C33.65,33.555,37.235,36.306,41.134,35.789z M49.401,59.15c0,0,2.852,16.723-4.657,24.989c0,0,11.296-6.525,6.828-34.947  c0.164,0.555-1.716-13.088,7.333-21.329c2.436-2.133,5.641-3.963,9.857-5.149c0,0-14.766,7.143-13.378,19.613  c0,0,14.893,2.007,22.49-13.201c0,0,6.197-10.74,17.126-10.513C95,18.612,36.894,4.073,49.401,59.15z"></path></svg>