<svg height='100px' width='100px'  fill="#ffffff" xmlns:x="http://ns.adobe.com/Extensibility/1.0/" xmlns:i="http://ns.adobe.com/AdobeIllustrator/10.0/" xmlns:graph="http://ns.adobe.com/Graphs/1.0/" xmlns="http://www.w3.org/2000/svg" xmlns:xlink="http://www.w3.org/1999/xlink" version="1.1" x="0px" y="0px" viewBox="0 0 100 100" style="enable-background:new 0 0 100 100;" xml:space="preserve"><g><g i:extraneous="self"><g><path d="M52.8,50c0-2.3-0.9-4.6-2.6-6.2L17.5,11c-3.4-3.4-9-3.4-12.4,0c-3.4,3.4-3.4,9,0,12.4L31.6,50L5.1,76.5     c-3.4,3.4-3.4,9,0,12.4c1.7,1.7,4,2.6,6.2,2.6c2.2,0,4.5-0.9,6.2-2.6l32.7-32.7C51.9,54.6,52.8,52.3,52.8,50z"></path><path d="M94.9,43.8L62.2,11c-3.4-3.4-9-3.4-12.4,0c-3.4,3.4-3.4,9,0,12.4L76.3,50L49.8,76.5c-3.4,3.4-3.4,9,0,12.4     c1.7,1.7,4,2.6,6.2,2.6c2.2,0,4.5-0.9,6.2-2.6l32.7-32.7c1.6-1.6,2.6-3.9,2.6-6.2C97.5,47.7,96.6,45.4,94.9,43.8z"></path></g></g></g></svg>