<svg height='100px' width='100px'  fill="#ffffff" xmlns:x="http://ns.adobe.com/Extensibility/1.0/" xmlns:i="http://ns.adobe.com/AdobeIllustrator/10.0/" xmlns:graph="http://ns.adobe.com/Graphs/1.0/" xmlns="http://www.w3.org/2000/svg" xmlns:xlink="http://www.w3.org/1999/xlink" version="1.1" x="0px" y="0px" viewBox="0 0 100 100" style="enable-background:new 0 0 100 100;" xml:space="preserve"><g><g i:extraneous="self"><path d="M97.5,56.8V43.2L82,38.9c-0.4-1.2-0.9-2.5-1.5-3.7l7.9-13.9l-9.7-9.7l-14,7.9c-1.1-0.6-2.4-1.1-3.6-1.5L56.9,2.5H43.1    L38.9,18c-1.2,0.5-2.5,1-3.6,1.5l-14-7.9l-9.7,9.7l7.9,13.9c-0.6,1.2-1.1,2.4-1.5,3.7L2.5,43.2v13.7L18,61.1    c0.4,1.2,0.9,2.4,1.5,3.6l-7.9,13.9l9.7,9.7l14-7.9c1.1,0.6,2.4,1.1,3.6,1.5l4.3,15.5h13.7L61.1,82c1.2-0.5,2.5-1,3.6-1.5l14,7.9    l9.7-9.7l-7.9-13.9c0.6-1.2,1.1-2.4,1.5-3.6L97.5,56.8z M50,66.2c-9,0-16.2-7.2-16.2-16.2S41,33.8,50,33.8S66.2,41.1,66.2,50    S59,66.2,50,66.2z"></path></g></g></svg>