<svg height='100px' width='100px'  fill="#ffffff" xmlns:x="http://ns.adobe.com/Extensibility/1.0/" xmlns:i="http://ns.adobe.com/AdobeIllustrator/10.0/" xmlns:graph="http://ns.adobe.com/Graphs/1.0/" xmlns="http://www.w3.org/2000/svg" xmlns:xlink="http://www.w3.org/1999/xlink" version="1.1" x="0px" y="0px" viewBox="0 0 100 100" style="enable-background:new 0 0 100 100;" xml:space="preserve"><g><g i:extraneous="self"><g><path d="M47.2,50c0,2.3,0.9,4.6,2.6,6.2L82.5,89c3.4,3.4,9,3.4,12.4,0c3.4-3.4,3.4-9,0-12.4L68.4,50l26.5-26.5     c3.4-3.4,3.4-9,0-12.4c-1.7-1.7-4-2.6-6.2-2.6c-2.2,0-4.5,0.9-6.2,2.6L49.8,43.8C48.1,45.4,47.2,47.7,47.2,50z"></path><path d="M5.1,56.2L37.8,89c3.4,3.4,9,3.4,12.4,0c3.4-3.4,3.4-9,0-12.4L23.7,50l26.5-26.5c3.4-3.4,3.4-9,0-12.4     c-1.7-1.7-4-2.6-6.2-2.6c-2.2,0-4.5,0.9-6.2,2.6L5.1,43.8c-1.6,1.6-2.6,3.9-2.6,6.2C2.5,52.3,3.4,54.6,5.1,56.2z"></path></g></g></g></svg>