<svg height='100px' width='100px'  fill="#ffffff" xmlns="http://www.w3.org/2000/svg" viewBox="0 0 36 36" x="0px" y="0px"><title>Монтажная область 25</title><path d="M17.06,10.89a1.39,1.39,0,0,0,2-.07,3.92,3.92,0,0,0,1.07-2.53c0-.84,0-1.69-.08-2.53a24.14,24.14,0,0,0-.33-2.52A14.51,14.51,0,0,0,19,.71a1.11,1.11,0,0,0-.64-.65A1.08,1.08,0,0,0,17,.71a14.51,14.51,0,0,0-.66,2.53A24.14,24.14,0,0,0,16,5.76c-.06.84-.09,1.69-.08,2.53A3.92,3.92,0,0,0,17,10.82Z"></path><path d="M12.68,18.28a3.84,3.84,0,0,0-2.72.34c-.74.41-1.45.85-2.15,1.33a21.63,21.63,0,0,0-2,1.55,14.6,14.6,0,0,0-1.86,1.83,1.07,1.07,0,0,0,1,1.75,14,14,0,0,0,2.52-.69,24.23,24.23,0,0,0,2.35-1c.76-.36,1.5-.76,2.23-1.19A3.86,3.86,0,0,0,13.69,20l0-.1A1.38,1.38,0,0,0,12.68,18.28Z"></path><path d="M32.07,23.33a14.6,14.6,0,0,0-1.86-1.83,21.63,21.63,0,0,0-2-1.55c-.7-.48-1.41-.92-2.15-1.33a3.84,3.84,0,0,0-2.72-.34l-.1,0A1.36,1.36,0,0,0,22.31,20,3.86,3.86,0,0,0,24,22.22c.73.43,1.47.83,2.23,1.19a24.23,24.23,0,0,0,2.35,1,14,14,0,0,0,2.52.69,1.06,1.06,0,0,0,.88-.23A1.07,1.07,0,0,0,32.07,23.33Z"></path><path d="M18,12.84a3.53,3.53,0,0,0-1.07,6.89L16,33.82v.28A2,2,0,0,0,20,33.82l-1-14.09A3.53,3.53,0,0,0,18,12.84Zm0,5.05a1.52,1.52,0,1,1,1.52-1.51A1.52,1.52,0,0,1,18,17.89Z"></path></svg>